<?xml version="1.0" encoding="utf-8"?>
<!-- Generator: Adobe Illustrator 19.2.1, SVG Export Plug-In . SVG Version: 6.00 Build 0)  -->
<svg version="1.1" id="Layer_3" xmlns="http://www.w3.org/2000/svg" xmlns:xlink="http://www.w3.org/1999/xlink" x="0px" y="0px"
	 viewBox="0 0 702.5 247.9" style="enable-background:new 0 0 702.5 247.9;" xml:space="preserve">
<style type="text/css">
	.st0{fill:#FFFFFF;}
	.st1{fill:#36ADD7;}
	.st2{fill:#004A70;}
	.st3{fill:#C70077;}
	.st4{fill:#231F20;}
	.st5{fill:none;stroke:#231F20;stroke-width:2;stroke-linecap:round;stroke-linejoin:round;stroke-miterlimit:10;}
	.st6{fill:none;stroke:#231F20;stroke-width:1.7;stroke-linecap:round;stroke-linejoin:round;stroke-miterlimit:10;}
	.st7{fill:none;stroke:#C70077;stroke-width:1.7;stroke-linecap:round;stroke-linejoin:round;stroke-miterlimit:10;}
	.st8{fill:none;stroke:#C70077;stroke-linecap:round;stroke-linejoin:round;stroke-miterlimit:10;}
	.st9{fill:none;stroke:#C70077;stroke-width:1.7;stroke-linecap:round;stroke-linejoin:round;}
	.st10{fill:none;stroke:#C70077;stroke-width:1.7;stroke-linecap:round;stroke-linejoin:round;stroke-dasharray:1.0208,5.1042;}
	.st11{fill:#FFFFFF;stroke:#C70077;stroke-width:1.7;stroke-linecap:round;stroke-linejoin:round;stroke-miterlimit:10;}
	.st12{fill:#B8D433;}
	
		.st13{fill:none;stroke:#C70077;stroke-width:1.7;stroke-linecap:round;stroke-linejoin:round;stroke-miterlimit:10;stroke-dasharray:1,5;}
	.st14{fill:none;stroke:#231F20;stroke-width:7;stroke-linecap:round;stroke-linejoin:round;stroke-miterlimit:10;}
	.st15{fill:none;stroke:#231F20;stroke-width:6;stroke-linecap:round;stroke-linejoin:round;stroke-miterlimit:10;}
	.st16{fill:none;stroke:#231F20;stroke-width:1.5;stroke-linecap:round;stroke-linejoin:round;stroke-miterlimit:10;}
	.st17{clip-path:url(#SVGID_2_);}
	.st18{clip-path:url(#SVGID_4_);}
	.st19{clip-path:url(#SVGID_6_);}
	.st20{clip-path:url(#SVGID_8_);}
	.st21{clip-path:url(#SVGID_10_);}
	.st22{clip-path:url(#SVGID_12_);}
	.st23{clip-path:url(#SVGID_14_);}
	.st24{clip-path:url(#SVGID_16_);}
	.st25{clip-path:url(#SVGID_18_);}
	.st26{clip-path:url(#SVGID_20_);}
	.st27{fill:none;stroke:#231F20;stroke-width:0.75;stroke-linecap:round;stroke-linejoin:round;stroke-miterlimit:10;}
</style>
<path class="st14" d="M257.6,71.8c9.6,58.2,6.4,79.3,6.4,80.7c-0.1,29.3-9.9,47.2-36.3,55.7c-42.8,13.8-87.3-2.2-134.6,0.7
	S18.3,223,3.5,244.4"/>
<path class="st14" d="M444.9,71.8c-9.6,58.2-6.4,79.3-6.4,80.7c0.1,29.3,9.9,47.2,36.3,55.7c42.8,13.8,87.3-2.2,134.6,0.7
	s74.7,14.1,89.5,35.5"/>
<path class="st14" d="M476.8,3.5c-5,22-18.5,55.5-41,79S385.1,128,352.9,130h-3.4c-32.1-2-60.4-24-82.9-47.5s-36-57-41-79"/>
<g>
	<path class="st14" d="M314.8,33c6.9-1.5,9.9-5.5,17-5.5c5.4,0,16.7,4.8,16.7,4.8"/>
	<path class="st14" d="M382.1,33c-6.9-1.5-9.9-5.5-17-5.5c-5.4,0-16.7,4.8-16.7,4.8"/>
</g>
<path class="st14" d="M323.8,52.5c5.8,2.8,14.9,4.7,25.1,4.7c10.2,0,19.3-1.8,25.1-4.7"/>
</svg>
