<?xml version="1.0" encoding="utf-8"?>
<!-- Generator: Adobe Illustrator 19.2.1, SVG Export Plug-In . SVG Version: 6.00 Build 0)  -->
<svg version="1.1" id="Layer_3" xmlns="http://www.w3.org/2000/svg" xmlns:xlink="http://www.w3.org/1999/xlink" x="0px" y="0px"
	 viewBox="0 0 306.1 469.1" style="enable-background:new 0 0 306.1 469.1;" xml:space="preserve">
<style type="text/css">
	.st0{fill:#FFFFFF;}
	.st1{fill:#36ADD7;}
	.st2{fill:#004A70;}
	.st3{fill:#C70077;}
	.st4{fill:#231F20;}
	.st5{fill:none;stroke:#231F20;stroke-width:2;stroke-linecap:round;stroke-linejoin:round;stroke-miterlimit:10;}
	.st6{fill:none;stroke:#231F20;stroke-width:1.7;stroke-linecap:round;stroke-linejoin:round;stroke-miterlimit:10;}
	.st7{fill:none;stroke:#C70077;stroke-width:1.7;stroke-linecap:round;stroke-linejoin:round;stroke-miterlimit:10;}
	.st8{fill:none;stroke:#C70077;stroke-linecap:round;stroke-linejoin:round;stroke-miterlimit:10;}
	.st9{fill:none;stroke:#C70077;stroke-width:1.7;stroke-linecap:round;stroke-linejoin:round;}
	.st10{fill:none;stroke:#C70077;stroke-width:1.7;stroke-linecap:round;stroke-linejoin:round;stroke-dasharray:1.0208,5.1042;}
	.st11{fill:#FFFFFF;stroke:#C70077;stroke-width:1.7;stroke-linecap:round;stroke-linejoin:round;stroke-miterlimit:10;}
	.st12{fill:#B8D433;}
	
		.st13{fill:none;stroke:#C70077;stroke-width:1.7;stroke-linecap:round;stroke-linejoin:round;stroke-miterlimit:10;stroke-dasharray:1,5;}
	.st14{fill:none;stroke:#231F20;stroke-width:7;stroke-linecap:round;stroke-linejoin:round;stroke-miterlimit:10;}
	.st15{fill:none;stroke:#231F20;stroke-width:6;stroke-linecap:round;stroke-linejoin:round;stroke-miterlimit:10;}
	.st16{fill:none;stroke:#231F20;stroke-width:1.5;stroke-linecap:round;stroke-linejoin:round;stroke-miterlimit:10;}
	.st17{clip-path:url(#SVGID_2_);}
	.st18{clip-path:url(#SVGID_4_);}
	.st19{clip-path:url(#SVGID_6_);}
	.st20{clip-path:url(#SVGID_8_);}
	.st21{clip-path:url(#SVGID_10_);}
	.st22{clip-path:url(#SVGID_12_);}
	.st23{clip-path:url(#SVGID_14_);}
	.st24{clip-path:url(#SVGID_16_);}
	.st25{clip-path:url(#SVGID_18_);}
	.st26{clip-path:url(#SVGID_20_);}
	.st27{fill:none;stroke:#231F20;stroke-width:0.75;stroke-linecap:round;stroke-linejoin:round;stroke-miterlimit:10;}
</style>
<path class="st15" d="M74.1,19.2l5.5,26.5c0,0,6.9,22.5-0.3,45.6c-7.2,23.1-24.9,109.3-27.7,121.4c-2.8,12.1-9.6,38.8-18.9,62.5
	C25.1,294.6,13.4,323.5,7,337S2.9,355.7,7,357.2c8,2.9,14.3-6.2,26.6-27c14.2-24.1,27.3-50.9,27.3-50.9s14.6-27.7,18.6-23
	c4,4.7-4.7,55.8-8.7,73s-11.8,60.5-14.1,74.3c-2.5,15.3-7.5,30.8,0.2,34.3c5.8,2.7,9.4,0.6,11.7-1.7c7.9-7.9,15-27.3,20.5-52.7
	c7.1-32.7,14.6-58.6,17.5-72.2c3.2-15.1,11.2-39.4,15.4-37.3s3,47.6,1.6,86.1c-1.5,38.5-2.8,83.3-2.4,91.9
	c0.7,15.8,20.1,19,22.2,7.1c4.1-22.9,4.5-41.5,7-68.2c1.9-20,10.7-75.1,10.7-75.1s2.9-34.9,6.9-35.4c4-0.5,13.2,78.1,13.2,78.1
	s2.1,55.1,3.8,65c1.6,9.3,20.1,21.4,24.1-4.6c3.9-26-1-144.9-1.1-165c-0.1-20.2,7.4-57.3,8.3-67.7c0.9-10.5,0.9-10.5,0.9-10.5"/>
<path class="st15" d="M177.9,3c0,0-0.1,10.2,1.9,23.1c2.1,14,6.7,31.2,16.4,41.6c18.5,20,32.8,37.4,44.8,62.5
	c11.1,23.3,31.3,73.8,46.4,87.8c6,5.6,13.9,15.3,15.5,19.3c2.5,6.4-13,20.9-37.2,3.9c-29.8-20.9-49.5-55.2-49.5-55.2"/>
</svg>
