<?xml version="1.0" encoding="utf-8"?>
<!-- Generator: Adobe Illustrator 19.2.1, SVG Export Plug-In . SVG Version: 6.00 Build 0)  -->
<svg version="1.1" id="Layer_3" xmlns="http://www.w3.org/2000/svg" xmlns:xlink="http://www.w3.org/1999/xlink" x="0px" y="0px"
	 viewBox="0 0 136 136" style="enable-background:new 0 0 136 136;" xml:space="preserve">
<style type="text/css">
	.st0{fill:#FFFFFF;}
	.st1{fill:#36ADD7;}
	.st2{fill:#004A70;}
	.st3{fill:#C70077;}
	.st4{fill:#231F20;}
	.st5{fill:none;stroke:#231F20;stroke-width:2;stroke-linecap:round;stroke-linejoin:round;stroke-miterlimit:10;}
	.st6{fill:none;stroke:#231F20;stroke-width:1.7;stroke-linecap:round;stroke-linejoin:round;stroke-miterlimit:10;}
	.st7{fill:none;stroke:#C70077;stroke-width:1.7;stroke-linecap:round;stroke-linejoin:round;stroke-miterlimit:10;}
	.st8{fill:none;stroke:#C70077;stroke-linecap:round;stroke-linejoin:round;stroke-miterlimit:10;}
	.st9{fill:none;stroke:#C70077;stroke-width:1.7;stroke-linecap:round;stroke-linejoin:round;}
	.st10{fill:none;stroke:#C70077;stroke-width:1.7;stroke-linecap:round;stroke-linejoin:round;stroke-dasharray:1.0208,5.1042;}
	.st11{fill:#FFFFFF;stroke:#C70077;stroke-width:1.7;stroke-linecap:round;stroke-linejoin:round;stroke-miterlimit:10;}
	.st12{fill:#B8D433;}
	
		.st13{fill:none;stroke:#C70077;stroke-width:1.7;stroke-linecap:round;stroke-linejoin:round;stroke-miterlimit:10;stroke-dasharray:1,5;}
	.st14{clip-path:url(#SVGID_2_);}
	.st15{clip-path:url(#SVGID_4_);}
	.st16{clip-path:url(#SVGID_6_);}
	.st17{clip-path:url(#SVGID_8_);}
	.st18{clip-path:url(#SVGID_10_);}
	.st19{clip-path:url(#SVGID_12_);}
	.st20{clip-path:url(#SVGID_14_);}
	.st21{clip-path:url(#SVGID_16_);}
</style>
<g>
	<g>
		<path class="st4" d="M63.6,52.7c0.8-0.1,1.5-0.5,2.3-0.5c0.6,0,1.4,0.2,2,0.3c0.7-0.1,1.4-0.4,2-0.3c0.8,0.1,1.5,0.4,2.3,0.5
			c0.9,0.1,1.3-1.3,0.4-1.4c-0.7-0.1-1.4-0.5-2.2-0.5c-0.9-0.1-1.8,0.3-2.6,0.3c-0.8,0-1.7-0.4-2.6-0.3c-0.8,0-1.4,0.4-2.2,0.5
			C62.3,51.4,62.7,52.8,63.6,52.7z"/>
	</g>
</g>
<g>
	<g>
		<path class="st4" d="M65.3,48.6h1.1c0.9,0,0.9-1.4,0-1.4h-1.1C64.4,47.2,64.4,48.6,65.3,48.6z"/>
	</g>
</g>
<g>
	<g>
		<path class="st4" d="M84.7,49.3C84.8,49.3,84.8,49.3,84.7,49.3c0.2-0.9,0.4-1.8,0.6-2.8c0.6-3.6,0-7,0.1-10.7c0-0.9-1.4-0.9-1.4,0
			c0,6.4,0.7,12.3-2.6,18.3C78.8,58.9,73.7,64,68,64.4v1.3c4.2-0.3,8.3-2.6,11.3-5.8c-0.7,4.1-0.3,8.6-0.6,12.6
			c-0.1,0.9,1.4,0.9,1.4,0c0.4-5-0.6-11.1,1.6-15.7c0.1-0.1,0.1-0.3,0.1-0.4C83,54.2,84.1,51.8,84.7,49.3
			C84.7,49.3,84.7,49.3,84.7,49.3z"/>
	</g>
</g>
<g>
	<g>
		<path class="st4" d="M51.2,49.3C51.2,49.3,51.2,49.3,51.2,49.3c-0.2-0.9-0.4-1.8-0.6-2.8c-0.6-3.6,0-7-0.1-10.7
			c0-0.9,1.4-0.9,1.4,0c0,6.4-0.7,12.3,2.6,18.3c2.6,4.8,7.7,9.9,13.4,10.2v1.3c-4.2-0.3-8.3-2.6-11.3-5.8c0.7,4.1,0.3,8.6,0.6,12.6
			c0.1,0.9-1.4,0.9-1.4,0c-0.4-5,0.6-11.1-1.6-15.7c-0.1-0.1-0.1-0.3-0.1-0.4C52.9,54.2,51.9,51.8,51.2,49.3
			C51.2,49.3,51.2,49.3,51.2,49.3z"/>
	</g>
</g>
<g>
	<g>
		<path class="st4" d="M71,54.4c-1,0.2-2,0.4-3.1,0.5c-1-0.1-2-0.3-3.1-0.5c-0.9-0.2-1.3,1.2-0.4,1.4c1.2,0.2,2.3,0.4,3.4,0.5
			c1.1-0.1,2.3-0.3,3.4-0.5C72.3,55.6,71.9,54.2,71,54.4z"/>
	</g>
</g>
<g>
	<g>
		<path class="st4" d="M69.5,48.6h1.1c0.9,0,0.9-1.4,0-1.4h-1.1C68.6,47.2,68.6,48.6,69.5,48.6z"/>
	</g>
</g>
<g>
	<path class="st4" d="M21.6,81.2c-0.2,0-0.3,0-0.5-0.1c-0.4-0.3-0.5-0.8-0.2-1.2c2.2-3.1,6.1-4.7,12.6-5.1c2.6-0.2,5.1,0.1,7.5,0.3
		c3.6,0.4,7.1,0.7,10.4-0.4c3.4-1.1,4.8-3.4,4.3-7.1c-0.1-0.5,0.3-0.9,0.7-1c0.5-0.1,0.9,0.3,1,0.7c0.6,4.5-1.2,7.6-5.4,9
		c-3.6,1.2-7.2,0.8-11.1,0.5c-2.3-0.2-4.8-0.5-7.2-0.3c-6,0.4-9.5,1.7-11.3,4.4C22.2,81.1,21.9,81.2,21.6,81.2z"/>
</g>
<g>
	<path class="st4" d="M114.4,81.5c-0.3,0-0.5-0.1-0.7-0.4c-1.8-2.7-5.3-4-11.3-4.4c-2.4-0.2-4.8,0.1-7.2,0.3
		c-3.8,0.4-7.4,0.7-11.1-0.5c-4.2-1.3-6.1-4.4-5.4-9c0.1-0.5,0.5-0.8,1-0.7c0.5,0.1,0.8,0.5,0.7,1c-0.5,3.7,0.9,6,4.3,7.1
		c3.3,1.1,6.7,0.7,10.4,0.4c2.4-0.2,4.9-0.5,7.5-0.3c6.6,0.4,10.5,2,12.6,5.1c0.3,0.4,0.2,0.9-0.2,1.2
		C114.7,81.5,114.5,81.5,114.4,81.5z"/>
</g>
<g>
	<path class="st3" d="M68,95.6c-6.5,0-11.9-10.4-11.9-23.3c0-0.3,0.2-0.5,0.5-0.5s0.5,0.2,0.5,0.5c0,12.3,4.9,22.3,10.9,22.3
		s10.9-10,10.9-22.3c0-0.3,0.2-0.5,0.5-0.5s0.5,0.2,0.5,0.5C79.9,85.1,74.6,95.6,68,95.6z"/>
</g>
</svg>
