<?xml version="1.0" encoding="utf-8"?>
<!-- Generator: Adobe Illustrator 19.2.1, SVG Export Plug-In . SVG Version: 6.00 Build 0)  -->
<svg version="1.1" id="Layer_3" xmlns="http://www.w3.org/2000/svg" xmlns:xlink="http://www.w3.org/1999/xlink" x="0px" y="0px"
	 viewBox="0 0 136 136" style="enable-background:new 0 0 136 136;" xml:space="preserve">
<style type="text/css">
	.st0{fill:#FFFFFF;}
	.st1{fill:#36ADD7;}
	.st2{fill:#004A70;}
	.st3{fill:#C70077;}
	.st4{fill:#231F20;}
	.st5{fill:none;stroke:#231F20;stroke-width:2;stroke-linecap:round;stroke-linejoin:round;stroke-miterlimit:10;}
	.st6{fill:none;stroke:#231F20;stroke-width:1.7;stroke-linecap:round;stroke-linejoin:round;stroke-miterlimit:10;}
	.st7{fill:none;stroke:#C70077;stroke-width:1.7;stroke-linecap:round;stroke-linejoin:round;stroke-miterlimit:10;}
	.st8{fill:none;stroke:#C70077;stroke-linecap:round;stroke-linejoin:round;stroke-miterlimit:10;}
	.st9{fill:none;stroke:#C70077;stroke-width:1.7;stroke-linecap:round;stroke-linejoin:round;}
	.st10{fill:none;stroke:#C70077;stroke-width:1.7;stroke-linecap:round;stroke-linejoin:round;stroke-dasharray:1.0208,5.1042;}
	.st11{fill:#FFFFFF;stroke:#C70077;stroke-width:1.7;stroke-linecap:round;stroke-linejoin:round;stroke-miterlimit:10;}
	.st12{fill:#B8D433;}
	
		.st13{fill:none;stroke:#C70077;stroke-width:1.7;stroke-linecap:round;stroke-linejoin:round;stroke-miterlimit:10;stroke-dasharray:1,5;}
	.st14{clip-path:url(#SVGID_2_);}
	.st15{clip-path:url(#SVGID_4_);}
	.st16{clip-path:url(#SVGID_6_);}
	.st17{clip-path:url(#SVGID_8_);}
	.st18{clip-path:url(#SVGID_10_);}
	.st19{clip-path:url(#SVGID_12_);}
	.st20{clip-path:url(#SVGID_14_);}
	.st21{clip-path:url(#SVGID_16_);}
</style>
<g>
	<defs>
		<circle id="SVGID_1_" cx="68" cy="68" r="68"/>
	</defs>
	<clipPath id="SVGID_2_">
		<use xlink:href="#SVGID_1_"  style="overflow:visible;"/>
	</clipPath>
	<g class="st14">
		<g>
			<path class="st4" d="M50.8,92.1c-1.3,0-2.8-0.2-4.5-0.6c-4.6-1.1-8.4-2.6-12.2-6.3c-3.6-3.5-2.8-7.9-2.2-11.7
				c0.1-0.6,0.2-1.1,0.3-1.7c0.5-3.1-1.3-5.6-5.2-7.4c-4.6-2.1-6.8-5.7-6.2-10.1c0.4-3,2.9-4.5,5.6-6c1.1-0.6,2.2-1.3,3.2-2
				c3.3-2.4,2.4-9.6,2.4-9.7l-1-29.1c0-0.5,0.4-0.9,0.8-0.9c0.4,0,0.9,0.4,0.9,0.8l1,29c0,0.3,1,8.2-3.1,11.2
				c-1.1,0.8-2.3,1.5-3.4,2.1c-2.5,1.4-4.5,2.6-4.8,4.8c-0.6,4.7,2.5,7.1,5.2,8.4c4.6,2.1,6.8,5.3,6.2,9.2c-0.1,0.6-0.2,1.2-0.3,1.7
				c-0.6,3.6-1.3,7.3,1.7,10.2c3.5,3.4,6.9,4.8,11.3,5.8c4.6,1.1,7.1,0.4,7.5-0.6c0.6-1.5,0.2-6.2-2.3-7.2c-1.4-0.6-2-0.7-2.3-0.8
				c-0.6-0.1-0.8-0.3-1.1-0.8c-0.8-1.4-1-4.8-1.2-8.7c-0.2-3.1-0.4-6.3-0.8-8.7c-2-10.1-3.8-23.5-0.5-29.5l1.7-3.2
				c0.2-0.4,0.7-0.6,1.2-0.3c0.4,0.2,0.6,0.7,0.3,1.2l-1.7,3.2c-2.4,4.3-2.2,14.4,0.6,28.3c0.5,2.5,0.7,5.8,0.9,8.9
				c0.2,3.4,0.4,6.9,1,7.9c0,0,0,0,0,0c0.4,0.1,1.1,0.3,2.6,0.9c3.7,1.6,4,7.4,3.2,9.4C55.2,91.4,53.4,92.1,50.8,92.1z"/>
		</g>
		<g>
			<path class="st4" d="M98.7,101c-3.2,0-6.5-0.6-8.7-2.3c-2.7-2-4.1-3.5-5.3-4.9c-1.2-1.4-2.3-2.5-4.4-3.9c-1.4-0.9-3.7-1.1-6-1.2
				c-4.1-0.3-8.7-0.6-11-5.1c-2.4-4.7-0.8-8.3,1-12.3c0.3-0.7,0.6-1.4,1-2.1c2-4.7-1-8.7-1.1-8.9C64,60,55.5,46.5,49.5,35.4
				c-6-11.3-5.1-33.3-5.1-34.2c0-0.5,0.4-0.8,0.8-0.8c0,0,0,0,0,0c0.5,0,0.8,0.4,0.8,0.9c0,0.2-0.9,22.4,4.9,33.3
				c5.9,11.1,14.4,24.6,14.5,24.7c0.1,0.1,3.7,4.9,1.3,10.5c-0.3,0.8-0.7,1.5-1,2.2c-1.8,4-3.1,6.8-1.1,10.8
				c1.9,3.7,5.8,3.9,9.6,4.2c2.6,0.2,5,0.3,6.8,1.5c2.2,1.4,3.4,2.8,4.7,4.2c1.2,1.3,2.6,2.8,5.1,4.7c4.9,3.7,16,1.2,18.1-0.1
				c1.4-0.8,2.5-2.3,2.7-3.5c0.1-0.6-0.1-1.1-0.4-1.6c-1-1.1-3.2-1.3-5.3-1.6c-2.2-0.3-4.3-0.6-5.4-1.8c-1.2-1.3-2.7-3.6-4.7-6.6
				c-3.9-5.7-9.2-13.5-16-20.9C74,54.9,68.8,38.4,66.7,25.4c-2-12.4-2.8-32.7-2.8-32.9c0-0.5,0.3-0.9,0.8-0.9c0.5,0,0.9,0.3,0.9,0.8
				c0,0.2,0.8,20.3,2.7,32.6c2,12.8,7.1,28.9,12.8,35.1c6.9,7.5,12.3,15.4,16.2,21.1c2,2.9,3.5,5.2,4.6,6.4c0.7,0.8,2.6,1,4.4,1.3
				c2.4,0.3,4.8,0.6,6.3,2.1c0.7,0.8,1.1,1.8,0.9,3c-0.3,1.8-1.7,3.7-3.5,4.8C108.3,99.7,103.5,101,98.7,101z"/>
		</g>
		<g>
			<path class="st4" d="M76.4,76.3c-2.6,0-4.8-1.9-4.8-2c-0.3-0.3-0.4-0.9-0.1-1.2s0.9-0.4,1.2-0.1c0,0,2,1.8,4.2,1.5
				c0.5-0.1,0.9,0.3,0.9,0.7s-0.3,0.9-0.7,0.9C76.9,76.3,76.7,76.3,76.4,76.3z"/>
		</g>
		<g>
			<path class="st3" d="M69.2,69c-5.8,0-10.2-2.2-10.7-5.5c-0.3-2,0.9-4.1,3.3-5.8c0.4-0.3,0.9-0.2,1.2,0.2c0.3,0.4,0.2,0.9-0.2,1.2
				c-1.8,1.3-2.8,2.8-2.6,4.1c0.4,3,6,4.7,12.2,3.8c3.1-0.4,6-1.5,8-2.9c1.8-1.3,2.8-2.8,2.6-4.1c-0.2-1.6-2-2.9-4.7-3.6
				c-0.5-0.1-0.7-0.6-0.6-1c0.1-0.5,0.6-0.7,1-0.6c3.5,0.9,5.7,2.7,6,5c0.3,2-0.9,4.1-3.3,5.8c-2.3,1.6-5.4,2.7-8.8,3.2
				C71.4,68.9,70.3,69,69.2,69z"/>
		</g>
	</g>
</g>
</svg>
