<?xml version="1.0" encoding="utf-8"?>
<!-- Generator: Adobe Illustrator 15.0.0, SVG Export Plug-In  -->
<!DOCTYPE svg PUBLIC "-//W3C//DTD SVG 1.1//EN" "http://www.w3.org/Graphics/SVG/1.1/DTD/svg11.dtd" [
	<!ENTITY ns_flows "http://ns.adobe.com/Flows/1.0/">
]>
<svg version="1.1"
	 xmlns="http://www.w3.org/2000/svg" xmlns:xlink="http://www.w3.org/1999/xlink" xmlns:a="http://ns.adobe.com/AdobeSVGViewerExtensions/3.0/"
	 x="0px" y="0px" width="280px" height="65px" viewBox="0 0 280 65" enable-background="new 0 0 280 65" xml:space="preserve">
<defs>
</defs>
<path d="M23.096,9.453l7.003,17.844H16.094L23.096,9.453z M12.121,3.728V8.51h5.858L5.252,39.955H0v4.78h17.171v-4.78H11.11
	l3.098-7.877h17.709l3.166,7.877h-6.128v4.78H46.53v-4.78h-5.32L26.531,3.728H12.121z"/>
<g>
	<defs>
		<rect id="SVGID_1_" width="280.017" height="64.802"/>
	</defs>
	<clipPath id="SVGID_2_">
		<use xlink:href="#SVGID_1_"  overflow="visible"/>
	</clipPath>
	<path clip-path="url(#SVGID_2_)" d="M50.236,39.955h6.06V8.509h-6.06V3.728h19.191c9.831,0,16.363,4.848,16.363,12.526
		c0,5.521-3.299,9.628-9.023,11.244l17.377,32.522H99.8v4.781h-9.696L70.977,29.046h-8.754v10.909h5.993v4.781H50.236V39.955z
		 M69.563,24.4c7.272,0,10.235-3.365,10.235-7.945c0-4.578-3.03-7.946-10.235-7.946h-7.34V24.4H69.563z"/>
	<path clip-path="url(#SVGID_2_)" d="M94.952,39.955h6.061V8.509h-6.061V3.728h19.528c8.821,0,15.016,3.772,15.016,10.572
		c0,3.973-2.087,7.744-8.013,9.428c6.666,1.414,9.427,5.387,9.427,10.1c0,6.869-5.858,10.908-15.487,10.908H94.952V39.955z
		 M113.739,21.64c6.195,0,9.899-2.357,9.899-6.734c0-4.242-3.636-6.465-9.158-6.465h-7.676V21.64H113.739z M115.288,40.023
		c5.926,0,9.764-2.357,9.764-6.802c0-4.512-3.771-7.003-10.034-7.003h-8.214v13.805H115.288z"/>
	<path clip-path="url(#SVGID_2_)" d="M137.85,24.265c0-12.389,8.552-21.346,21.077-21.346c12.524,0,21.076,8.957,21.076,21.346
		c0,12.391-8.552,21.279-21.076,21.279C146.401,45.544,137.85,36.656,137.85,24.265 M173.942,24.265
		c0-9.965-6.195-16.361-15.016-16.361c-8.754,0-14.949,6.463-14.949,16.361c0,9.967,6.128,16.297,14.949,16.297
		C167.68,40.563,173.942,34.163,173.942,24.265"/>
	<polygon clip-path="url(#SVGID_2_)" points="186.134,39.955 192.194,39.955 192.194,8.51 186.134,8.51 186.134,3.728 
		204.988,3.728 204.988,8.51 198.12,8.51 198.12,39.955 214.012,39.955 214.012,32.615 219.533,32.615 219.533,44.735 
		186.134,44.735 	"/>
	<polygon clip-path="url(#SVGID_2_)" points="224.923,39.955 230.984,39.955 230.984,8.51 224.923,8.51 224.923,3.728 258.12,3.728 
		258.12,15.244 252.666,15.244 252.666,8.51 236.909,8.51 236.909,21.707 253.878,21.707 253.878,26.488 236.909,26.488 
		236.909,39.955 252.801,39.955 252.801,33.019 258.322,33.019 258.322,44.735 224.923,44.735 	"/>
	<polygon clip-path="url(#SVGID_2_)" points="265.467,4.896 269.342,0 280.018,10.607 278.112,12.987 	"/>
</g>
</svg>
