<?xml version="1.0" encoding="utf-8"?>
<!-- Generator: Adobe Illustrator 19.2.1, SVG Export Plug-In . SVG Version: 6.00 Build 0)  -->
<svg version="1.1" id="Layer_3" xmlns="http://www.w3.org/2000/svg" xmlns:xlink="http://www.w3.org/1999/xlink" x="0px" y="0px"
	 viewBox="0 0 426.4 395.8" style="enable-background:new 0 0 426.4 395.8;" xml:space="preserve">
<style type="text/css">
	.st0{fill:#FFFFFF;}
	.st1{fill:#36ADD7;}
	.st2{fill:#004A70;}
	.st3{fill:#C70077;}
	.st4{fill:#231F20;}
	.st5{fill:none;stroke:#231F20;stroke-width:2;stroke-linecap:round;stroke-linejoin:round;stroke-miterlimit:10;}
	.st6{fill:none;stroke:#231F20;stroke-width:1.7;stroke-linecap:round;stroke-linejoin:round;stroke-miterlimit:10;}
	.st7{fill:none;stroke:#C70077;stroke-width:1.7;stroke-linecap:round;stroke-linejoin:round;stroke-miterlimit:10;}
	.st8{fill:none;stroke:#C70077;stroke-linecap:round;stroke-linejoin:round;stroke-miterlimit:10;}
	.st9{fill:none;stroke:#C70077;stroke-width:1.7;stroke-linecap:round;stroke-linejoin:round;}
	.st10{fill:none;stroke:#C70077;stroke-width:1.7;stroke-linecap:round;stroke-linejoin:round;stroke-dasharray:1.0208,5.1042;}
	.st11{fill:#FFFFFF;stroke:#C70077;stroke-width:1.7;stroke-linecap:round;stroke-linejoin:round;stroke-miterlimit:10;}
	.st12{fill:#B8D433;}
	
		.st13{fill:none;stroke:#C70077;stroke-width:1.7;stroke-linecap:round;stroke-linejoin:round;stroke-miterlimit:10;stroke-dasharray:1,5;}
	.st14{fill:none;stroke:#231F20;stroke-width:7;stroke-linecap:round;stroke-linejoin:round;stroke-miterlimit:10;}
	.st15{fill:none;stroke:#231F20;stroke-width:6;stroke-linecap:round;stroke-linejoin:round;stroke-miterlimit:10;}
	.st16{fill:none;stroke:#231F20;stroke-width:1.5;stroke-linecap:round;stroke-linejoin:round;stroke-miterlimit:10;}
	.st17{clip-path:url(#SVGID_2_);}
	.st18{clip-path:url(#SVGID_4_);}
	.st19{clip-path:url(#SVGID_6_);}
	.st20{clip-path:url(#SVGID_8_);}
	.st21{clip-path:url(#SVGID_10_);}
	.st22{clip-path:url(#SVGID_12_);}
	.st23{clip-path:url(#SVGID_14_);}
	.st24{clip-path:url(#SVGID_16_);}
	.st25{clip-path:url(#SVGID_18_);}
	.st26{clip-path:url(#SVGID_20_);}
	.st27{fill:none;stroke:#231F20;stroke-width:0.75;stroke-linecap:round;stroke-linejoin:round;stroke-miterlimit:10;}
</style>
<path class="st14" d="M3.5,16.3C20.3,43.9,31.7,62,31.7,62s28.6,36.8,10.2,79.7S4.1,212.3,25.6,254.1c27.9,54.2,102.2,26.5,136.9,49
	c34.7,22.5,36.7,40.1,79.6,72.2s136.1,11.2,155.3,0c19.7-11.5,34-37.4,19.8-52.4c-19.2-20.2-72-10.8-87.2-27.9
	C303.4,265,246.2,162.4,160.4,70.2c-14.6-15.7-28.6-39-41.4-66.7"/>
<path class="st14" d="M92.2,176.4c0,0,18.5,16.7,39.5,14.1"/>
</svg>
