<?xml version="1.0" encoding="utf-8"?>
<!-- Generator: Adobe Illustrator 19.2.1, SVG Export Plug-In . SVG Version: 6.00 Build 0)  -->
<svg version="1.1" id="Layer_3" xmlns="http://www.w3.org/2000/svg" xmlns:xlink="http://www.w3.org/1999/xlink" x="0px" y="0px"
	 viewBox="0 0 396.7 419.1" style="enable-background:new 0 0 396.7 419.1;" xml:space="preserve">
<style type="text/css">
	.st0{fill:#FFFFFF;}
	.st1{fill:#36ADD7;}
	.st2{fill:#004A70;}
	.st3{fill:#C70077;}
	.st4{fill:#231F20;}
	.st5{fill:none;stroke:#231F20;stroke-width:2;stroke-linecap:round;stroke-linejoin:round;stroke-miterlimit:10;}
	.st6{fill:none;stroke:#231F20;stroke-width:1.7;stroke-linecap:round;stroke-linejoin:round;stroke-miterlimit:10;}
	.st7{fill:none;stroke:#C70077;stroke-width:1.7;stroke-linecap:round;stroke-linejoin:round;stroke-miterlimit:10;}
	.st8{fill:none;stroke:#C70077;stroke-linecap:round;stroke-linejoin:round;stroke-miterlimit:10;}
	.st9{fill:none;stroke:#C70077;stroke-width:1.7;stroke-linecap:round;stroke-linejoin:round;}
	.st10{fill:none;stroke:#C70077;stroke-width:1.7;stroke-linecap:round;stroke-linejoin:round;stroke-dasharray:1.0208,5.1042;}
	.st11{fill:#FFFFFF;stroke:#C70077;stroke-width:1.7;stroke-linecap:round;stroke-linejoin:round;stroke-miterlimit:10;}
	.st12{fill:#B8D433;}
	
		.st13{fill:none;stroke:#C70077;stroke-width:1.7;stroke-linecap:round;stroke-linejoin:round;stroke-miterlimit:10;stroke-dasharray:1,5;}
	.st14{fill:none;stroke:#231F20;stroke-width:7;stroke-linecap:round;stroke-linejoin:round;stroke-miterlimit:10;}
	.st15{fill:none;stroke:#231F20;stroke-width:6;stroke-linecap:round;stroke-linejoin:round;stroke-miterlimit:10;}
	.st16{fill:none;stroke:#231F20;stroke-width:1.5;stroke-linecap:round;stroke-linejoin:round;stroke-miterlimit:10;}
	.st17{clip-path:url(#SVGID_2_);}
	.st18{clip-path:url(#SVGID_4_);}
	.st19{clip-path:url(#SVGID_6_);}
	.st20{clip-path:url(#SVGID_8_);}
	.st21{clip-path:url(#SVGID_10_);}
	.st22{clip-path:url(#SVGID_12_);}
	.st23{clip-path:url(#SVGID_14_);}
	.st24{clip-path:url(#SVGID_16_);}
	.st25{clip-path:url(#SVGID_18_);}
	.st26{clip-path:url(#SVGID_20_);}
	.st27{fill:none;stroke:#231F20;stroke-width:0.75;stroke-linecap:round;stroke-linejoin:round;stroke-miterlimit:10;}
</style>
<path class="st14" d="M40.4,3.5c0,0,3,17.3-9.1,42.2c-2,4.1-1.3,11.9,2,23.9c4.1,14.4,8.1,24.4-8.1,50.8s-29.5,33.5-16.3,44.7
	S46,179.8,46,179.8s-8.3,21.3-12.7,27.9c-1.7,2.5,3,11.2,17.3,12.2c7.1,0.5-18,6-12.2,22.3c3.2,9.1,20.3,6.2,16.3,20.4
	c-4.1,14.2-10.2,34.5,14.2,36.6s79.8-12.8,94.4-19.6"/>
<path class="st14" d="M206.7,415.6c0,0-4.8-65.9-23-90.5c-17.2-23.2-24.7-40.5-58.9-33.6"/>
<path class="st14" d="M40.4,3.5c0,0,22,2.1,46,9.6c6.3,2,12.6,4.3,18.8,7.1c3.2,1.4,6.3,3,9.4,4.7C125,30.7,134.1,38,140,47.2
	c23.4,36.6,33.5,51.3,48.8,57.2c15.2,5.8,23.4,4.8,23.4,4.8S226,73.6,248,77.7c22,4.1,31.9,24.8,22,49.8
	c-12.2,31-27.3,52.8-27.3,52.8"/>
<path class="st14" d="M341.2,313.4c0,0-35.6-63-30.5-86.4s24.4-47.4,43.7-71c19.3-23.5,48.8-83.5,35.6-130.2c-0.5-1.9-1-3.7-1.6-5.6
	c-1.5-5.5-3.1-11.1-4.8-16.7"/>
<path class="st14" d="M68.8,214.7c0,0-9.1,7.3-18.3,5.2"/>
</svg>
