<?xml version="1.0" encoding="utf-8"?>
<!-- Generator: Adobe Illustrator 19.2.1, SVG Export Plug-In . SVG Version: 6.00 Build 0)  -->
<svg version="1.1" id="Layer_3" xmlns="http://www.w3.org/2000/svg" xmlns:xlink="http://www.w3.org/1999/xlink" x="0px" y="0px"
	 viewBox="0 0 136 136" style="enable-background:new 0 0 136 136;" xml:space="preserve">
<style type="text/css">
	.st0{fill:#FFFFFF;}
	.st1{fill:#36ADD7;}
	.st2{fill:#004A70;}
	.st3{fill:#C70077;}
	.st4{fill:#231F20;}
	.st5{fill:none;stroke:#231F20;stroke-width:2;stroke-linecap:round;stroke-linejoin:round;stroke-miterlimit:10;}
	.st6{fill:none;stroke:#231F20;stroke-width:1.7;stroke-linecap:round;stroke-linejoin:round;stroke-miterlimit:10;}
	.st7{fill:none;stroke:#C70077;stroke-width:1.7;stroke-linecap:round;stroke-linejoin:round;stroke-miterlimit:10;}
	.st8{fill:none;stroke:#C70077;stroke-linecap:round;stroke-linejoin:round;stroke-miterlimit:10;}
	.st9{fill:none;stroke:#C70077;stroke-width:1.7;stroke-linecap:round;stroke-linejoin:round;}
	.st10{fill:none;stroke:#C70077;stroke-width:1.7;stroke-linecap:round;stroke-linejoin:round;stroke-dasharray:1.0208,5.1042;}
	.st11{fill:#FFFFFF;stroke:#C70077;stroke-width:1.7;stroke-linecap:round;stroke-linejoin:round;stroke-miterlimit:10;}
	.st12{fill:#B8D433;}
	
		.st13{fill:none;stroke:#C70077;stroke-width:1.7;stroke-linecap:round;stroke-linejoin:round;stroke-miterlimit:10;stroke-dasharray:1,5;}
	.st14{clip-path:url(#SVGID_2_);}
	.st15{clip-path:url(#SVGID_4_);}
	.st16{clip-path:url(#SVGID_6_);}
	.st17{clip-path:url(#SVGID_8_);}
	.st18{clip-path:url(#SVGID_10_);}
	.st19{clip-path:url(#SVGID_12_);}
	.st20{clip-path:url(#SVGID_14_);}
	.st21{clip-path:url(#SVGID_16_);}
	.st22{clip-path:url(#SVGID_18_);}
	.st23{clip-path:url(#SVGID_20_);}
</style>
<g>
	<defs>
		<circle id="SVGID_17_" cx="68" cy="68" r="68"/>
	</defs>
	<clipPath id="SVGID_2_">
		<use xlink:href="#SVGID_17_"  style="overflow:visible;"/>
	</clipPath>
	<g class="st14">
		<g>
			<path class="st4" d="M32.2,79.8c-1.5,0-4.5-0.9-5.3-2.5c-0.2-0.4-0.4-0.9-0.2-1.5c0.3-0.8,1.1-1.1,2.5-1.7
				c0.3-0.1,0.6-0.2,0.9-0.4c2.3-1,9.2-7,12.2-10.1c2.2-2.3,5.1-3.7,7.3-4.8c0.9-0.4,1.7-0.8,2.2-1.2c1-0.6,4.1-2.3,7.7-4.3
				c3.9-2.1,8.3-4.6,10.5-5.9c1.2-0.7,4.3-2.1,7.8-3.6c4.4-1.9,9.3-4.1,12.5-5.9c4.8-2.7,7-5.4,9.9-9.1c0.5-0.7,1.1-1.3,1.6-2.1
				c3.9-4.8,14.5-18.7,14.6-18.8c0.3-0.4,0.8-0.4,1.2-0.2c0.4,0.3,0.4,0.8,0.2,1.2c-0.1,0.1-10.6,14-14.6,18.9
				c-0.6,0.7-1.1,1.4-1.6,2c-3.1,3.9-5.3,6.7-10.4,9.5c-3.3,1.8-8.2,4-12.6,6c-3.5,1.5-6.5,2.9-7.6,3.5c-2.2,1.3-6.7,3.8-10.6,5.9
				c-3.5,1.9-6.7,3.7-7.6,4.3c-0.6,0.4-1.4,0.8-2.4,1.3c-2.2,1.1-4.9,2.4-6.8,4.5c-2.7,2.9-10,9.3-12.7,10.5
				c-0.3,0.1-0.6,0.3-0.9,0.4c-0.6,0.3-1.3,0.5-1.5,0.7c0,0,0,0.1,0.1,0.2c0.4,0.8,2.9,1.7,3.9,1.5c0.5-0.1,0.9,0.3,0.9,0.7
				c0.1,0.5-0.3,0.9-0.7,0.9C32.4,79.7,32.3,79.8,32.2,79.8z"/>
		</g>
		<g>
			<path class="st4" d="M33.3,85.6c-2.2,0-4.4-0.6-5.2-2.1c-0.9-1.9,1.5-3.5,1.8-3.7c0.1-0.1,11.4-8.5,14-11.2
				c1.5-1.6,3.6-3.7,5.1-5.1c0.6-0.6,2-1.2,4.4-2.3c2.3-1,4.9-2.1,6.5-3.2c0.4-0.3,0.9-0.2,1.2,0.2c0.3,0.4,0.2,0.9-0.2,1.2
				c-1.8,1.2-4.5,2.4-6.8,3.4c-1.6,0.7-3.5,1.5-3.9,1.9c-1.5,1.4-3.6,3.5-5.1,5c-2.6,2.8-13.8,11.1-14.2,11.5
				c-0.7,0.5-1.4,1.3-1.3,1.5c0.4,0.7,2.5,1.4,4.8,1.1c2.2-0.3,3.4-1.2,3.4-1.2c0.4-0.3,0.9-0.2,1.2,0.1c0.3,0.4,0.2,0.9-0.1,1.2
				c-0.1,0-1.6,1.2-4.2,1.6C34.2,85.6,33.8,85.6,33.3,85.6z"/>
		</g>
		<g>
			<path class="st4" d="M36.2,89.3c-1.3,0-2.2-0.4-2.5-1.2c-0.4-0.9,0.1-1.9,0.7-2.4C35,85.2,45.8,75.7,48,73
				c2.5-2.9,6.2-5.3,8.9-6.4c2.6-1.1,8.5-3.2,8.5-3.2c0.4-0.2,0.9,0.1,1.1,0.5c0.2,0.4-0.1,0.9-0.5,1.1c-0.1,0-5.9,2.2-8.5,3.2
				c-2.4,1-6,3.3-8.3,5.9c-2.4,2.8-13.2,12.4-13.9,13c-0.1,0.1-0.2,0.3-0.2,0.4c0,0,0,0,0,0c0,0,0.4,0.3,1.9,0.1
				c2.9-0.4,6.2-2.1,8.1-3.1c0.3-0.2,0.6-0.3,0.8-0.4c1-0.5,4.4-3.3,7-5.3c1.7-1.4,3.2-2.6,4-3.1c2.6-1.8,8.7-2.8,9.4-2.9
				c3.7-0.6,15.7-3.1,16.7-4.3c0.3-0.4,0.8-0.4,1.2-0.1c0.4,0.3,0.4,0.8,0.1,1.2c-1.8,2.2-17.6,4.9-17.8,5c-2.2,0.3-6.8,1.3-8.7,2.6
				c-0.7,0.5-2.3,1.7-3.9,3.1c-3.6,2.9-6.2,5-7.3,5.5c-0.2,0.1-0.5,0.3-0.8,0.4c-2,1.1-5.5,2.9-8.7,3.3
				C36.9,89.3,36.5,89.3,36.2,89.3z M35.2,87.5L35.2,87.5L35.2,87.5z"/>
		</g>
		<g>
			<path class="st4" d="M78,90.9c-0.7,0-1.4-0.3-2-0.9c-1.6-1.4-1.6-6.1-1.3-7.6c0.4-2.2,2.9-6.6,5.8-9.5c2.5-2.5,4-9.5,4.1-9.6
				c0.1-0.5,0.6-0.8,1-0.7c0.5,0.1,0.8,0.5,0.7,1c-0.1,0.3-1.6,7.6-4.5,10.4c-2.7,2.7-5,6.9-5.3,8.6c-0.3,1.7-0.1,5.3,0.7,6
				c0.5,0.5,0.9,0.5,1.1,0.4c0.4-0.1,1.3-0.5,2.4-2.7c1.1-2,4.7-7.4,4.8-7.6c0-0.1,0.1-0.1,0.1-0.1c2.9-2.7,9.1-8.6,10.5-9.7
				c1.2-0.9,6-6.8,6.6-10.9c0.2-1.1,0.2-2.2,0.3-3.4c0.2-3.6,0.4-7.3,3.1-9.6c3.2-2.9,10.6-9.7,10.6-9.7l9.7-8.2
				c0.4-0.3,0.9-0.3,1.2,0.1c0.3,0.4,0.3,0.9-0.1,1.2l-9.7,8.1c0,0-7.3,6.7-10.6,9.6c-2.1,1.9-2.3,5.3-2.5,8.5
				c-0.1,1.2-0.1,2.4-0.3,3.5c-0.7,4.5-5.7,10.8-7.2,12c-1.3,1-7.2,6.6-10.3,9.5c-0.5,0.7-3.7,5.6-4.7,7.4c-1.2,2.2-2.4,3.4-3.6,3.6
				C78.3,90.9,78.2,90.9,78,90.9z"/>
		</g>
		<g>
			<path class="st4" d="M42.9,65c-0.1,0-0.2,0-0.3,0c-1.4-0.5-6.2-2.2-7.1-3.2c-0.5-0.6-0.5-1.4-0.1-2.1c0.6-1.1,2.4-1.9,4.4-1.4
				c6.2,1.4,13-1.2,13.1-1.2c0.4-0.2,0.9,0,1.1,0.5c0.2,0.4,0,0.9-0.5,1.1c-0.3,0.1-7.3,2.8-14.1,1.3c-1.1-0.3-1.9,0.1-2.3,0.4
				c-0.2,0.2-0.3,0.4-0.3,0.4c0.4,0.5,3.7,1.8,6.4,2.7c0.4,0.2,0.7,0.6,0.5,1.1C43.5,64.8,43.2,65,42.9,65z"/>
		</g>
		<path class="st7" d="M59.9,66.3c0,0,3.6-1.1,5.6,1.2c1.4,1.7,1.9,4.4,2,5.6"/>
		<path class="st7" d="M59.2,66.7c0,0,1.2-0.1,3.1,2.3c1.1,1.5,1.1,3.8,0.9,5.1"/>
	</g>
</g>
</svg>
