<?xml version="1.0" encoding="utf-8"?>
<!-- Generator: Adobe Illustrator 19.2.1, SVG Export Plug-In . SVG Version: 6.00 Build 0)  -->
<svg version="1.1" id="Layer_3" xmlns="http://www.w3.org/2000/svg" xmlns:xlink="http://www.w3.org/1999/xlink" x="0px" y="0px"
	 viewBox="0 0 136 136" style="enable-background:new 0 0 136 136;" xml:space="preserve">
<style type="text/css">
	.st0{fill:#FFFFFF;}
	.st1{fill:#36ADD7;}
	.st2{fill:#004A70;}
	.st3{fill:#C70077;}
	.st4{fill:#231F20;}
	.st5{fill:none;stroke:#231F20;stroke-width:2;stroke-linecap:round;stroke-linejoin:round;stroke-miterlimit:10;}
	.st6{fill:none;stroke:#231F20;stroke-width:1.7;stroke-linecap:round;stroke-linejoin:round;stroke-miterlimit:10;}
	.st7{fill:none;stroke:#C70077;stroke-width:1.7;stroke-linecap:round;stroke-linejoin:round;stroke-miterlimit:10;}
	.st8{fill:none;stroke:#C70077;stroke-linecap:round;stroke-linejoin:round;stroke-miterlimit:10;}
	.st9{fill:none;stroke:#C70077;stroke-width:1.7;stroke-linecap:round;stroke-linejoin:round;}
	.st10{fill:none;stroke:#C70077;stroke-width:1.7;stroke-linecap:round;stroke-linejoin:round;stroke-dasharray:1.0208,5.1042;}
	.st11{fill:#FFFFFF;stroke:#C70077;stroke-width:1.7;stroke-linecap:round;stroke-linejoin:round;stroke-miterlimit:10;}
	.st12{fill:#B8D433;}
	
		.st13{fill:none;stroke:#C70077;stroke-width:1.7;stroke-linecap:round;stroke-linejoin:round;stroke-miterlimit:10;stroke-dasharray:1,5;}
	.st14{clip-path:url(#SVGID_2_);}
	.st15{clip-path:url(#SVGID_4_);}
	.st16{clip-path:url(#SVGID_6_);}
	.st17{clip-path:url(#SVGID_8_);}
	.st18{clip-path:url(#SVGID_10_);}
	.st19{clip-path:url(#SVGID_12_);}
	.st20{clip-path:url(#SVGID_14_);}
	.st21{clip-path:url(#SVGID_16_);}
</style>
<g>
	<path class="st4" d="M44.7,85.5c-0.3,0-0.6,0-0.8,0c-1.4-0.1-2.3-0.6-2.9-1.4c-1-1.4-0.4-3.5,0-5c0.2-0.6,0.1-0.7-0.7-1
		c-0.6-0.3-1.4-0.7-1.7-1.5c-0.5-1.4,0.1-2.5,0.9-3.1c-0.8-0.3-1.3-0.9-1.5-1.3c-0.2-0.5-0.2-1,0-1.4c0.4-0.6,1-2,1.4-3
		c-1.3-0.3-3.4-0.9-4.9-2.2c-2-1.7-0.9-3.3,0.5-5.1c0.5-0.7,1.1-1.5,1.8-2.6c2.1-3.4,1.7-4.7,1.2-6.5l-0.1-0.3
		c-0.6-2-0.7-3.3-0.2-4.1c1.6-3.4,1.3-5.7,1.3-5.7c-0.1-0.5,0.2-0.9,0.7-1c0.5-0.1,0.9,0.2,1,0.7c0,0.1,0.5,2.9-1.4,6.8
		c-0.1,0.1-0.3,0.8,0.4,2.9l0.1,0.3c0.6,2.1,1.1,3.9-1.4,7.9c-0.7,1.1-1.3,2-1.8,2.7c-1.6,2.1-1.5,2.2-0.7,2.8c1.7,1.5,5,2,5.1,2
		c0.3,0,0.5,0.2,0.6,0.4c0.1,0.2,0.2,0.5,0.1,0.7c-0.1,0.3-1.1,2.9-1.8,4.1c0.2,0.2,0.7,0.6,1.8,0.7c0.7,0.1,0.9,0.5,1,0.7
		c0.2,0.7-0.4,1-0.8,1.2c-1,0.6-1.6,1.1-1.3,1.9c0.1,0.2,0.4,0.4,0.8,0.6c0.8,0.4,2.2,1,1.6,3c-0.4,1.3-0.8,2.9-0.3,3.7
		c0.3,0.4,0.8,0.6,1.6,0.7c3.5,0.3,11.6-1.9,13.6-2.8c0.4-0.2,0.9,0,1.1,0.4c0.2,0.4,0,0.9-0.4,1.1C56.2,83.5,48.8,85.5,44.7,85.5z"
		/>
</g>
<g>
	<path class="st4" d="M64.3,102.7c-0.4,0-0.8-0.3-0.8-0.8c0-0.1-0.7-9.6-3.2-13c-0.3-0.4-0.6-0.8-0.8-1.1c-2-2.8-3.1-4.3-7.1-3.5
		c-0.5,0.1-0.9-0.2-1-0.7s0.2-0.9,0.7-1c5-1,6.7,1.3,8.8,4.2c0.3,0.4,0.5,0.7,0.8,1.1c2.8,3.8,3.5,13.4,3.6,13.9
		C65.2,102.3,64.9,102.7,64.3,102.7C64.4,102.7,64.4,102.7,64.3,102.7z"/>
</g>
<g>
	<path class="st4" d="M84.3,87.6c-0.3,0-0.6-0.2-0.7-0.4c-0.6-1-5.4-9.7-4.6-13.4c0.8-3.8,3.9-7.5,6.6-10.9c2.4-2.9,7-11.7,5.1-18.5
		l-0.3-0.9c-1.9-6.8-4-14.5-16.3-18.7c-10-3.4-17-1.1-21.5,0.4c-0.5,0.2-1,0.3-1.5,0.5c-4.4,1.4-9.5,4.1-10.6,6.5
		c-1.6,3.3-0.6,6.7-0.2,7.9c2.3,0.3,11.6,1.7,14.9,6.8c3.5,5.4,4.8,7.4,6.8,8.1c1.2,0.5,2.1,0.6,2.6,0.7c0.7-1.5,2.8-5.2,6-4.6
		c1.7,0.3,3.1,1.2,3.8,2.6c0.9,1.6,0.9,3.7,0.1,5.9c-1.8,4.6-4,7.9-4.1,8c-0.3,0.4-0.8,0.5-1.2,0.2c-0.4-0.3-0.5-0.8-0.2-1.2
		c0,0,2.2-3.2,4-7.6c0.7-1.7,0.7-3.3,0-4.4c-0.5-0.9-1.4-1.6-2.7-1.8c-2.5-0.5-4.4,4.1-4.4,4.1c-0.1,0.3-0.4,0.5-0.7,0.5
		c-0.1,0-1.5,0.2-3.9-0.8c-2.6-1-4.2-3.4-7.6-8.8c-3.2-5-14-6.1-14.1-6.1c-0.3,0-0.6-0.2-0.7-0.5c-0.1-0.2-2.2-4.9,0-9.8
		c1.5-3.2,7.8-6.2,11.7-7.4c0.4-0.1,0.9-0.3,1.4-0.5c4.5-1.5,12.1-4,22.6-0.4c13.1,4.5,15.5,13,17.4,19.8l0.3,0.9
		c2.1,7.6-2.7,16.8-5.4,20.1c-2.6,3.2-5.6,6.8-6.3,10.2c-0.6,2.6,3,9.7,4.4,12.2c0.2,0.4,0.1,0.9-0.3,1.2
		C84.6,87.6,84.4,87.6,84.3,87.6z"/>
</g>
<g>
	<path class="st4" d="M41.7,73.8c-0.2,0-0.5,0-0.7-0.1c-0.5-0.1-0.7-0.6-0.6-1c0.1-0.5,0.6-0.7,1-0.6c0.8,0.2,1.7-0.4,2-0.6
		c0.4-0.3,0.9-0.2,1.2,0.1c0.3,0.4,0.2,0.9-0.1,1.2C44.3,72.9,43.1,73.8,41.7,73.8z"/>
</g>
<g>
	<path class="st4" d="M48.1,109.8c-0.5,0-0.8-0.4-0.8-0.8s0.4-0.8,0.8-0.8c7.7,0,11.7-2.1,18.3-9.8c7.1-8.2,13.9-12.4,20.3-12.4
		c0,0,0,0,0,0c6.5,0,14.7,5.4,15.8,12.6c0.1,0.5-0.2,0.9-0.7,1c-0.5,0.1-0.9-0.2-1-0.7c-1-6.3-8.4-11.1-14.1-11.1c0,0,0,0,0,0
		c-5.9,0-12.3,4-19,11.8C60.8,107.5,56.4,109.8,48.1,109.8z"/>
</g>
<g>
	<path class="st3" d="M67.3,77L67.3,77c-0.3,0-0.6-0.2-0.7-0.4c-0.5-0.9-3.2-5.7-3.2-7.5c0-2.2,1.8-3.9,3.9-3.9
		c2.2,0,3.9,1.8,3.9,3.9c0,1.8-2.6,6.5-3.2,7.5C67.9,76.8,67.6,77,67.3,77z M67.3,66.9c-1.2,0-2.2,1-2.2,2.2c0,0.8,1.1,3.3,2.2,5.3
		c1.1-2,2.2-4.5,2.2-5.3C69.5,67.8,68.5,66.9,67.3,66.9z"/>
</g>
</svg>
